<?xml version="1.0" encoding="utf-8"?>
<!-- Generator: Adobe Illustrator 26.0.3, SVG Export Plug-In . SVG Version: 6.00 Build 0)  -->
<svg version="1.1" id="Layer_1" xmlns="http://www.w3.org/2000/svg" xmlns:xlink="http://www.w3.org/1999/xlink" x="0px" y="0px"
	 viewBox="0 0 88 89" style="enable-background:new 0 0 88 89;" xml:space="preserve">
<style type="text/css">
	.st0{fill:none;stroke:#231F20;stroke-width:1.44;stroke-miterlimit:22.9256;}
	.st1{fill-rule:evenodd;clip-rule:evenodd;fill:#2E3191;}
	.st2{fill-rule:evenodd;clip-rule:evenodd;fill:#FFFFFF;stroke:#2E3191;stroke-width:1.44;stroke-miterlimit:22.9256;}
	.st3{fill:#FFFFFF;}
	.st4{font-family:'GujratiLys-050';}
	.st5{font-size:8.5922px;}
	.st6{font-size:8.601px;}
	.st7{font-size:8.6492px;}
	.st8{font-size:8.6856px;}
	.st9{font-size:8.7337px;}
	.st10{font-size:8.7528px;}
	.st11{font-size:8.8042px;}
	.st12{font-size:8.8705px;}
	.st13{font-size:8.8865px;}
	.st14{font-size:8.9148px;}
	.st15{font-size:8.9432px;}
	.st16{font-size:8.9597px;}
	.st17{font-size:8.9611px;}
	.st18{font-size:8.9305px;}
	.st19{font-size:8.9269px;}
	.st20{font-size:8.7592px;}
	.st21{font-size:8.7274px;}
	.st22{font-size:8.6692px;}
	.st23{font-size:8.6401px;}
	.st24{font-size:8.6108px;}
	.st25{fill-rule:evenodd;clip-rule:evenodd;fill:#2E3191;stroke:#2E3191;stroke-width:0.72;stroke-miterlimit:22.9256;}
	.st26{fill:none;stroke:#2E3191;stroke-width:1.44;stroke-miterlimit:22.9256;}
	.st27{fill-rule:evenodd;clip-rule:evenodd;fill:#EC1C24;stroke:#EC1C24;stroke-width:0.216;stroke-miterlimit:22.9256;}
</style>
<g>
	<path class="st0" d="M44,1.8c23.6,0,42.7,19.1,42.7,42.7S67.6,87.2,44,87.2S1.3,68.1,1.3,44.5S20.4,1.8,44,1.8L44,1.8z"/>
	<path class="st1" d="M44,44.5L5.3,56.5c-1.2-3.9-1.8-8-1.8-12.1C3.5,22.1,21.6,4,44,4s40.5,18.2,40.5,40.5c0,4.1-0.6,8.2-1.8,12.1
		L44,44.5L44,44.5z"/>
	<path class="st2" d="M43.4,17.8C58.1,17.8,70,29.7,70,44.5c0,14.7-11.9,26.6-26.6,26.6c-14.7,0-26.6-11.9-26.6-26.6
		C16.8,29.7,28.7,17.8,43.4,17.8L43.4,17.8z"/>
	<text transform="matrix(3.489634e-02 -1.0423 0.9993 3.639990e-02 11.248 48.4629)" class="st3 st4 st5">z</text>
	<text transform="matrix(0.1563 -1.0291 0.9866 0.163 11.5821 42.6419)" class="st3 st4 st6">L</text>
	<text transform="matrix(0.3881 -0.9537 0.9144 0.4048 12.873 36.3731)" class="st3 st4 st7">X</text>
	<text transform="matrix(0.4946 -0.8935 0.8567 0.5159 14.9695 31.3492)" class="st3 st4 st8">F</text>
	<text transform="matrix(0.6056 -0.8086 0.7752 0.6317 15.8368 29.574)" class="st3 st4 st9">Z</text>
	<text transform="matrix(0.644 -0.7727 0.7408 0.6717 17.8399 26.6759)" class="st3 st4 st10">N</text>
	<text transform="matrix(0.7365 -0.6678 0.6402 0.7682 20.2777 23.643)" class="st3 st4 st11">F</text>
	<text transform="matrix(0.8388 -0.5051 0.4843 0.8749 24.9518 19.3424)" class="st3 st4 st12">S</text>
	<text transform="matrix(0.8615 -0.4578 0.4389 0.8985 29.0149 16.9013)" class="st3 st4 st13">[</text>
	<text transform="matrix(0.8997 -0.3602 0.3454 0.9385 29.0623 16.7155)" class="st3 st4 st14">/</text>
	<text transform="matrix(0.9361 -0.2254 0.2161 0.9764 34.0816 14.6997)" class="st3 st4 st15">J</text>
	<text transform="matrix(0.9566 -6.976714e-02 6.689002e-02 0.9978 38.1313 13.6174)" class="st3 st4 st16">6</text>
	<text transform="matrix(0.9582 3.490178e-02 -3.346001e-02 0.9994 43.7091 13.2463)" class="st3 st4 st17">L</text>
	<text transform="matrix(0.92 0.2934 -0.2813 0.9596 49.8664 13.7367)" class="st3 st4 st18">D</text>
	<text transform="matrix(0.9154 0.3102 -0.2974 0.9547 54.131 14.9472)" class="st3 st4 st19">\</text>
	<text transform="matrix(0.8997 0.3602 -0.3454 0.9385 54.1601 15.0359)" class="st3 st4 st14">0</text>
	<text transform="matrix(0.8388 0.5051 -0.4843 0.8749 58.0138 16.4726)" class="st3 st4 st12">/</text>
	<text transform="matrix(0.6563 0.7603 -0.7289 0.6846 65.9531 22.1385)" class="st3 st4 st20">S</text>
	<text transform="matrix(0.5925 0.8201 -0.7862 0.618 69.117 25.8177)" class="st3 st4 st21">5</text>
	<text transform="matrix(0.4499 0.921 -0.883 0.4693 71.9055 29.7162)" class="st3 st4 st22">0</text>
	<text transform="matrix(0.3564 0.9683 -0.9284 0.3717 73.6824 33.4754)" class="st3 st4 st23">J</text>
	<text transform="matrix(0.2245 1.0141 -0.9722 0.2341 75.1454 37.5528)" class="st3 st4 st24">6</text>
	<text transform="matrix(3.489634e-02 1.0423 -0.9993 3.639990e-02 76.3311 43.2682)" class="st3 st4 st5">H</text>
	<path class="st25" d="M13.2,57.8c1.4,0,2.5,1.1,2.5,2.5c0,1.4-1.1,2.5-2.5,2.5c-1.4,0-2.5-1.1-2.5-2.5
		C10.7,58.9,11.8,57.8,13.2,57.8L13.2,57.8z"/>
	<path class="st25" d="M74.3,57.8c1.4,0,2.5,1.1,2.5,2.5c0,1.4-1.1,2.5-2.5,2.5c-1.4,0-2.5-1.1-2.5-2.5
		C71.8,58.9,72.9,57.8,74.3,57.8L74.3,57.8z"/>
	<path class="st26" d="M44,1.8c23.6,0,42.7,19.1,42.7,42.7S67.6,87.2,44,87.2S1.3,68.1,1.3,44.5S20.4,1.8,44,1.8L44,1.8z"/>
	<path class="st27" d="M42.2,68.3c1.3,0,2.4-0.3,3.2-1c0.8,0.5,2.3,0.8,4.5,0.8c2.4,0,4.3-1,4.4-2.3c0-0.3-0.5-0.7-1.2-0.9
		c1-0.3,1.6-0.9,1.6-1.5c0-1.2-1.5-2.1-3.4-2.1c-1.3,0-2.4,0.2-3.2,0.6l-0.7-0.8l1.7-0.6l-0.7-2l0.8-0.6c1.2,1.4,3.2,2.2,5.5,2.2
		c1.4,0,2.5-0.3,3.3-1c-1.1-0.4-2-1.4-2.4-2.7c-0.2-0.5-0.5-0.9-0.8-1.1l0.4,0c2,0,4.4-1.9,6.3-5.1c-1.2,0-2.3-0.7-3.5-0.7
		c-0.7,0-1.2,0.1-1.5,0.2c0.2-0.1,0.4-0.5,0.8-1.3c0.9-1.7,1.7-2.8,2.4-3c-0.6-0.5-1.7-0.7-3.2-0.8c-1.6,0-3,0.5-3.6,1.3
		c0-1.3,0.2-2.3,0.6-2.5c-0.4-0.3-0.9-0.4-1.3-0.5c-1.9,0-3.5,0.8-3.6,1.9c-0.2-0.1-0.3-0.6-0.7-1.3l-1.2-2.4l1.6,0.3
		c0.2,0.2,0.6,0.4,1,0.4c0.3,0,0.6-0.1,0.7-0.4l2.8,0.3c1.2,0,2.2-0.9,2.2-1.9c0-0.4-0.3-0.7-0.7-0.7l0.9-1l-1.3-0.4l-0.4,0.5h-0.9
		c-0.6,0-1.4,0.2-2.4,0.8c-0.4-0.3-0.8-0.5-1.6-0.5c-0.2-0.4-1-0.6-2.4-1.2l2.4-1.5c0.9,0,1.6-0.7,1.6-1.8c0.4-0.6,0.6-1.3,0.6-2
		c0-0.9-0.3-1.7-0.7-2l3.8-4.7c0.3-0.4,0.5-0.9,0.5-1.5c0-1.4-0.8-2.6-1.7-2.6c-1.4,0-3.6,1.8-3.6,2.9c0,0.5,0.4,0.9,0.8,0.9
		c0.1,0,0.2,0,0.4-0.1l-5,6.5l-0.4-0.4c0.8-0.8,1.2-1.9,1.2-3.2c0-2.7-1.7-4.9-3.9-5.3c0.1,0,0.2-0.2,0.2-0.5c0-0.4-0.4-0.7-0.8-0.7
		c0-0.5-0.3-0.9-0.7-1.2c-0.4,0.2-0.7,0.7-0.7,1.2c-0.4,0-0.7,0.3-0.7,0.7c0,0.2,0.1,0.4,0.2,0.5c-2.8,0.5-4.9,2.7-4.9,5.3
		c0,0.9,0.2,1.6,0.6,2.2c-0.2,0.2-0.3,0.6-0.3,1.2c-0.4,0-0.9,0.1-1.2,0.4c0-0.1,0.1-0.2,0.1-0.3c0-0.2-0.2-0.3-0.2-0.4
		c0-0.3,0-0.5-0.2-0.6c0-0.1,0-0.4-0.1-0.5c0.1,0,0.2-0.1,0.2-0.3c0-0.3-0.3-0.5-0.7-0.5c-2.1,0-3.8,1.8-3.8,4c0,0.2,0,0.4,0.1,0.4
		c-0.2,0.2-0.3,0.4-0.3,0.6c0,0.4,0.3,0.8,0.8,1c0.3,1.6,1.2,3.1,2.5,4.2c-0.1,0.4-0.2,1.2-0.2,2.2c-0.6,0.6-0.9,1.5-0.9,2.4h-0.5
		c0-1.4-0.2-2.4-0.5-2.7l-2.4,0.5c0.9,1,1.4,1.8,1.5,2.4c-0.5,0.1-0.9,0.5-1.1,1c-0.5,0.7-1,1.2-1.3,1.3c-1.9,0.8-3.1,2.4-3.1,4
		c0,2.6,1.8,5,4.6,6c2,0.7,4.4,3.4,6.6,7.6C36.1,66.7,39,68.3,42.2,68.3L42.2,68.3z M42.2,68c-3,0-5.7-1.5-7.2-4.1
		c-2.4-4.3-4.8-7-6.7-7.7c-2.6-1-4.3-3.3-4.3-5.8c0-1.3,1.1-2.8,2.9-3.8c0.6-0.3,1.1-0.8,1.4-1.4c0.3-0.6,1-0.9,1.8-1h1.4l0.2,0.4
		l1.5,0.9l-1.7,0.1c-0.2,0.3-0.7,0.5-1.3,0.5c-1,0.2-1.7,1-1.7,1.9c0,0.8,0.7,1.5,1.7,1.7c1.2,0.4,2.2,1.5,2.5,2.9
		c3.3,5.8,6.5,9.4,9,10.3c2.4,0.9,4.1,2.1,4.1,2.9C45.8,67.1,44.2,68,42.2,68L42.2,68z M29.4,44.1c-0.4-1.2-1-1.9-1.4-2.3l1.9-0.3
		c0.3,0.3,0.4,1.1,0.4,2.4L29.4,44.1L29.4,44.1z M34.3,61.3l-6-9.9c-0.6-1.1-1.4-1.7-1.9-1.7c-1.1,0-1.9,0.8-1.9,1.7l0.2,0
		c0.1-0.9,0.9-1.5,1.7-1.5c0.5,0,1.2,0.6,1.8,1.6L34.3,61.3L34.3,61.3L34.3,61.3z M34,57.2c-2.4-2.1-3.8-4.2-3.8-5.8
		c0-0.6,0.3-1.1,0.7-1.2l-0.2,0c-0.4,0.1-0.7,0.6-0.7,1.2C30,53,31.4,55.1,34,57.2L34,57.2L34,57.2z M29.7,45.1
		c0.1,0.1,0.2,0.1,0.4,0.1c0.2,0,0.4,0,0.6-0.2c-0.1-0.1-0.3-0.2-0.5-0.2C30,44.9,29.9,44.9,29.7,45.1L29.7,45.1z M32.8,45.5
		l-1.2-0.6l-0.3,0.6H32.8L32.8,45.5z M29.9,43.9l-0.7-2.2l-0.2,0l0.7,2.1H29.9L29.9,43.9z M49.2,63.3c0.3,0.9,1.3,1.4,2.3,1.4
		c-1.1-0.2-1.9-0.7-2-1.4l4.6,0v-0.1L49.7,63c0.2-0.5,1-1,2.2-1.2c-1.2,0-2.2,0.5-2.5,1.2l-0.4,0l-0.1,0.3H49.2L49.2,63.3z
		 M46.2,65.5c0.8,0.6,2,1,3.6,1c0.9,0,2-0.1,3.1-0.3v-0.2c-1,0.2-2,0.3-2.8,0.3c-1.8,0-3.2-0.4-4.1-1.1L46.2,65.5L46.2,65.5z
		 M42.2,67.3c0.5,0,1-0.2,1-0.5c0-0.3-0.4-0.5-1-0.5c-0.5,0-1,0.2-1,0.5C41.2,67.1,41.7,67.3,42.2,67.3L42.2,67.3z M42.2,67.1
		c-0.4,0-0.8-0.1-0.8-0.3c0-0.1,0.3-0.2,0.8-0.3c0.4,0,0.7,0.1,0.7,0.3C42.9,67,42.6,67.1,42.2,67.1L42.2,67.1z M39.8,65.9
		c0.4,0,0.7-0.2,0.7-0.5c0-0.5-0.6-0.9-1.4-0.9c-0.4,0-0.7,0.2-0.7,0.5C38.4,65.4,39,65.8,39.8,65.9L39.8,65.9z M39.8,65.7
		c-0.7,0-1.3-0.3-1.3-0.8c0-0.2,0.2-0.3,0.6-0.4c0.7,0,1.3,0.3,1.3,0.8C40.4,65.5,40.1,65.7,39.8,65.7L39.8,65.7z M44.3,65.9
		c0.4,0,0.8-0.2,0.8-0.5c0-0.3-0.3-0.5-0.6-0.5c-0.4,0-0.8,0.2-0.8,0.5C43.6,65.7,43.9,65.9,44.3,65.9L44.3,65.9z M44.3,65.7
		c-0.2,0-0.4-0.1-0.4-0.3c0-0.1,0.3-0.2,0.6-0.2c0.2,0,0.4,0.1,0.4,0.2C44.9,65.6,44.6,65.7,44.3,65.7L44.3,65.7z M42.2,65.4
		c0.5,0,1-0.2,1-0.6c0-0.5-0.7-0.9-1.6-0.9c-0.4,0-0.8,0.3-0.8,0.6C40.8,65,41.4,65.3,42.2,65.4L42.2,65.4z M42.2,65.2
		c-0.7,0-1.3-0.3-1.3-0.7c0-0.3,0.3-0.5,0.6-0.5c0.8,0,1.5,0.3,1.5,0.7C43,65,42.6,65.2,42.2,65.2L42.2,65.2z M38.2,63.9
		c0.3,0,0.6-0.2,0.6-0.5c0-0.7-0.7-1.2-1.6-1.2c-0.3,0-0.6,0.2-0.6,0.5C36.7,63.4,37.3,63.9,38.2,63.9L38.2,63.9z M38.2,63.8
		c-0.8,0-1.4-0.5-1.4-1.1c0-0.1,0.2-0.2,0.4-0.3c0.8,0,1.4,0.4,1.4,1C38.7,63.6,38.5,63.8,38.2,63.8L38.2,63.8z M37,64.9
		c0.2,0,0.4-0.2,0.4-0.4c0-0.3-0.3-0.6-0.7-0.6c-0.2,0-0.3,0.1-0.4,0.3C36.3,64.6,36.6,64.9,37,64.9L37,64.9z M37,64.7
		c-0.3,0-0.5-0.2-0.5-0.5c0-0.1,0.1-0.2,0.2-0.2c0.3,0,0.5,0.2,0.5,0.4C37.2,64.7,37.1,64.7,37,64.7L37,64.7z M39.8,63.7
		c0.2,0,0.3-0.1,0.3-0.3c0-0.2-0.3-0.4-0.6-0.4c-0.1,0-0.2,0.1-0.2,0.3C39.3,63.5,39.6,63.7,39.8,63.7L39.8,63.7z M39.8,63.5
		c-0.2,0-0.3-0.1-0.4-0.3c0,0,0-0.1,0.1-0.1c0.2,0,0.4,0.1,0.4,0.2C40,63.5,39.9,63.5,39.8,63.5L39.8,63.5z M35.5,62.5
		c0.3,0,0.5-0.2,0.5-0.5c0-0.3-0.2-0.5-0.5-0.5c-0.3,0-0.5,0.2-0.5,0.5C35,62.3,35.2,62.5,35.5,62.5L35.5,62.5z M35.5,62.3
		c-0.2,0-0.3-0.1-0.3-0.3c0-0.2,0.1-0.3,0.3-0.3s0.3,0.1,0.3,0.3C35.8,62.2,35.7,62.3,35.5,62.3L35.5,62.3z M42.9,62.3
		c0.3,0,0.5-0.2,0.5-0.5c0-0.3-0.2-0.5-0.5-0.5c-0.3,0-0.5,0.2-0.5,0.5C42.4,62.2,42.6,62.3,42.9,62.3L42.9,62.3z M42.9,62.2
		c-0.2,0-0.3-0.1-0.3-0.3c0-0.2,0.1-0.3,0.3-0.3c0.2,0,0.3,0.1,0.3,0.3C43.2,62.1,43.1,62.2,42.9,62.2L42.9,62.2z M41,62.1
		c0.3,0,0.5-0.2,0.5-0.5c0-0.3-0.2-0.5-0.5-0.5c-0.3,0-0.5,0.2-0.5,0.5C40.5,61.9,40.7,62.1,41,62.1L41,62.1z M41,61.9
		c-0.2,0-0.3-0.1-0.3-0.3c0-0.2,0.1-0.3,0.3-0.3c0.2,0,0.3,0.1,0.3,0.3C41.3,61.8,41.2,61.9,41,61.9L41,61.9z M44.7,61.9
		c0.3,0,0.5-0.2,0.5-0.5c0-0.3-0.2-0.5-0.5-0.5c-0.3,0-0.5,0.2-0.5,0.5C44.3,61.7,44.4,61.9,44.7,61.9L44.7,61.9z M44.7,61.8
		c-0.2,0-0.3-0.1-0.3-0.3c0-0.2,0.1-0.3,0.3-0.3c0.2,0,0.3,0.1,0.3,0.3C45.1,61.6,44.9,61.8,44.7,61.8L44.7,61.8z M46.3,61.2
		c0.3,0,0.5-0.2,0.5-0.5c0-0.3-0.2-0.5-0.5-0.5c-0.3,0-0.5,0.2-0.5,0.5C45.8,61,46,61.2,46.3,61.2L46.3,61.2z M46.3,61.1
		c-0.2,0-0.3-0.1-0.3-0.3c0-0.2,0.1-0.3,0.3-0.3c0.2,0,0.3,0.1,0.3,0.3C46.6,60.9,46.5,61.1,46.3,61.1L46.3,61.1z M47.7,60.4
		c0.3,0,0.5-0.2,0.5-0.5c0-0.3-0.2-0.5-0.5-0.5c-0.3,0-0.5,0.2-0.5,0.5C47.2,60.2,47.4,60.4,47.7,60.4L47.7,60.4z M47.7,60.3
		c-0.2,0-0.3-0.1-0.3-0.3c0-0.2,0.1-0.3,0.3-0.3s0.3,0.1,0.3,0.3C48,60.1,47.9,60.3,47.7,60.3L47.7,60.3z M36.4,61.5
		c0.4,0,0.7-0.3,0.7-0.6c0-0.7-0.5-1.3-1.1-1.3c-0.4,0-0.7,0.3-0.7,0.7C35.2,61,35.8,61.5,36.4,61.5L36.4,61.5z M36.4,61.3
		c-0.5,0-1-0.5-1-1.1c0-0.3,0.2-0.5,0.5-0.5c0.5,0,0.9,0.5,0.9,1.1C36.9,61.1,36.7,61.3,36.4,61.3L36.4,61.3z M49.9,67.8
		c-2.3,0-3.8-0.2-4.3-0.7c0.3-0.2,0.4-0.7,0.5-1.2c0-0.3-0.2-0.7-0.7-1.2h0.5c0.2,0.1,0.4,0.2,0.5,0.2c0.3,0,0.5-0.2,0.6-0.5
		c0.7,0.6,2.3,0.9,4.3,0.9c0.3,0,0.7-0.1,1-0.1c0.9,0,1.6,0.3,1.7,0.7C54,66.9,52.1,67.8,49.9,67.8L49.9,67.8z M51.3,65
		c-2,0-3.4-0.2-3.9-0.7c0.1,0,0.2-0.1,0.3-0.2c0.3,0,0.5-0.2,0.5-0.4c0.2,0,0.4-0.2,0.4-0.4c0.1,0,0.2-0.1,0.2-0.3
		c0-0.1-0.2-0.4-0.6-0.7c0.7-0.4,1.8-0.6,3.1-0.6c1.7,0,3.1,0.8,3.1,1.9C54.4,64.3,53,65,51.3,65L51.3,65z M46.4,64.7
		c-0.3,0-0.6-0.3-0.6-0.7l-0.4-1.5c0.6-0.7,1.3-1.1,1.8-1.1l1.4,1.5c0,0.1-0.1,0.2-0.2,0.2l-0.5-0.5l-0.1,0c0.4,0.4,0.7,0.6,0.7,0.8
		c0,0.1-0.1,0.1-0.2,0.1c-0.2,0-0.4-0.3-0.8-0.8l-0.1,0c0.3,0.5,0.7,0.7,0.7,0.9c0,0.1-0.1,0.2-0.2,0.3c-0.2,0-0.4-0.4-0.8-1.1
		l-0.2,0.1c0.4,0.6,0.7,0.8,0.7,1.1c0,0.1-0.1,0.2-0.3,0.2c-0.2,0-0.3-0.4-0.8-1.1l-0.1,0.1c0.3,0.6,0.5,0.8,0.5,1
		C46.8,64.5,46.7,64.7,46.4,64.7L46.4,64.7z M46.4,64.4c0.1,0,0.2-0.1,0.2-0.2c0-0.1-0.1-0.2-0.2-0.2c-0.1,0-0.2,0.1-0.2,0.2
		C46.1,64.3,46.2,64.4,46.4,64.4L46.4,64.4z M53.2,53.2c0.1,0,0.2-0.1,0.2-0.2c0-0.1-0.1-0.2-0.2-0.2c-0.1,0-0.2,0.1-0.2,0.2
		C52.9,53.1,53,53.2,53.2,53.2L53.2,53.2z M45.1,64.4c-0.7-0.5-2-1.1-3.8-1.8c0,0,0.1,0,0.3,0c0.6,0,1.1,0.4,1.6,0.4
		c1,0,1.7-0.1,2.1-0.3l0.5,1.9L45.1,64.4L45.1,64.4z M43.2,62.7c-0.6,0-1.1-0.4-1.7-0.4h-0.6c-1-0.5-2.5-1.9-4.3-4.2
		c0.7,0.8,1.4,1.2,1.9,1.2c0.3,0.9,1,1.4,1.6,1.4c0.6,0,1,0,1.2-0.1c0.3,0.2,0.8,0.4,1.4,0.4c0.6,0,1.2-0.2,1.5-0.5
		c1.1-0.1,2.2-0.6,3.1-1.4l0.9-0.4l0.7,1.8l-1.6,0.6c-0.5,0-1.2,0.4-2,1.2C44.8,62.6,44.1,62.7,43.2,62.7L43.2,62.7z M42.7,60.8
		c-0.7,0-1.2-0.1-1.4-0.3c-0.2,0-0.6,0-1.2,0.1c-0.6,0-1.2-0.6-1.4-1.4c-0.7,0-1.4-0.4-1.8-1.2l0.6-1.5c0.1,1,0.8,1.7,1.4,1.7
		c0.3,0.6,0.8,0.9,1.4,1c0.1,0,0.2,0,0.5-0.2c0.3,0.4,0.8,0.7,1.2,0.7c0.3,0,0.7-0.2,1.2-0.5c0.3,0.1,0.6,0.2,1,0.2
		c0.3,0,0.8-0.4,1.2-1c0.9,0,1.7-0.4,1.9-1.1c1,0,1.6-0.3,2-1v1.5c-0.8,0.6-1.5,1-2,1.1c-1.1,0.9-2.2,1.4-3.1,1.4
		C43.8,60.6,43.2,60.8,42.7,60.8L42.7,60.8z M54.7,60c-2.3,0-4.2-0.7-5.2-2v-1.7c0-0.5,0.2-1,0.2-1.4c0-0.8,0-1.8-0.2-3
		c0.7,0.7,1.1,1.4,1.2,2c0.3,0.5,0.6,0.8,0.8,0.8c0.2,0,0.4,0,0.4-0.2c0.3,0,0.7,0.2,1.9,0.7c0.9,0.4,1.5,1,1.7,1.6
		c0.5,1.3,1.2,2.3,2.1,2.7C56.8,59.8,55.8,60,54.7,60L54.7,60z M42,59.1c-0.2,0-0.7-0.2-1.2-0.7c-0.2,0.1-0.4,0.2-0.5,0.2
		c-0.5,0-1-0.4-1.2-1c-0.8,0-1.4-0.9-1.4-1.9l1.3-3.8c0.6-1.6,1.5-2.6,2.3-2.6c1,0,1.8,0.5,2.2,1.2c1.1,1.1,2.3,1.6,3.6,1.7
		c-1.6-0.3-3-1.2-3.8-2.6c1.9,0,3.3,1.9,5.3,1.9h0.9c0,0.5,0.1,1,0.1,1.4v1.9c0,1.1-1.1,1.9-2.4,1.9c0,0.5-0.9,1-1.9,1
		c0,0.5-0.6,1-1.4,1c-0.1,0-0.3-0.1-0.5-0.2C43,58.8,42.5,59.1,42,59.1L42,59.1z M36.5,58c-1.8-2.5-3-4.3-3.5-5.3
		c-0.4-1.7-1.5-2.9-2.9-3.1c-0.8-0.1-1.4-0.8-1.4-1.4c0-0.8,0.6-1.5,1.4-1.6c0.5,0,1.1-0.2,1.4-0.5l2-0.2l-1.8-1.1l-0.2-0.4
		c1.6,0.2,3,1.5,3.7,3.4l0.3-0.1v-2.2c2.1,1.2,3.6,2.8,4.2,4.6c-0.5,0.7-0.9,1.3-1.2,1.9L36.5,58L36.5,58z M54.5,55.4
		c-0.6-0.5-1.4-0.8-2.4-1.1l0.3-0.1c0.2,0,0.5-0.1,0.5-0.4c0.1,0,0.3-0.1,0.3-0.2c0.3,0,0.5-0.2,0.6-0.5c0-0.2-0.3-0.7-0.8-1.3
		c-0.4-0.9-0.9-1.6-1.5-1.9L51.3,49c0.9-0.7,1.4-1.5,1.4-2.1c0.7-1.1,2.1-1.7,3.8-1.7c1.3,0,2.3,0.2,2.7,0.5
		c-0.6,0.2-1.2,1.2-2.2,2.9l-1,1.9c0.4-0.2,1.1-0.4,1.9-0.4c0.5,0,1.4,0.2,3.1,0.7c-2.1,2.9-4.3,4.6-6,4.6H54.5L54.5,55.4z M54,53.6
		c2.3,0,3.9-2.5,6.2-2.5v-0.2c-2.4,0-4,2.5-6.3,2.5L54,53.6L54,53.6z M35.9,53.4c-2.2-2.4-3.3-4.7-3.3-6.3h-0.2c0,2,1.2,4.2,3.3,6.5
		L35.9,53.4L35.9,53.4z M43.3,58c-1.3-0.9-2.1-3.2-2.1-7.1h-0.1c0,0.4,0,0.8,0,1.2c0,2.8,0.8,5.1,2,6L43.3,58L43.3,58z M40.5,57.3
		C40.1,56.9,40,56,40,54.6c0-0.8,0-1.8,0-2.9h-0.1c-0.1,1.5-0.2,2.6-0.2,3.6c0,1.1,0.1,1.8,0.5,2.2L40.5,57.3L40.5,57.3z M42.6,51.3
		c0.7,2,2.4,3.2,4,3.2c0.4,0,0.9-0.1,1.3-0.3l0-0.2c-0.4,0.3-0.9,0.4-1.3,0.4c-1.5,0-3.1-1.2-3.7-3.2L42.6,51.3L42.6,51.3z
		 M43.3,54.6c0.4,1.2,1.6,1.9,2.8,1.9c0.6,0,1.2-0.1,1.8-0.5l0-0.2c-0.5,0.3-1.1,0.5-1.7,0.5c-1.2,0-2.2-0.7-2.6-1.9L43.3,54.6
		L43.3,54.6z M47,48.5c0.7-0.6,1.4-1,2-1c0.2,0,0.4,0,0.6,0.1l0-0.2c-0.1-0.1-0.3-0.1-0.5-0.1c-0.6,0-1.3,0.3-2.1,1L47,48.5L47,48.5
		z M45.6,46.1c0.7-0.6,1.4-1,2-1c0.2,0,0.4,0,0.6,0.1l0-0.2c-0.1-0.1-0.3-0.1-0.5-0.1c-0.6,0-1.3,0.3-2.1,1L45.6,46.1L45.6,46.1z
		 M37.6,53.4C37,53,36.7,51.8,36.7,50c0-0.9,0-1.9,0.2-2.9h-0.2c-0.2,1.1-0.3,2.1-0.3,3c0,1.6,0.3,2.9,0.9,3.6L37.6,53.4L37.6,53.4z
		 M50.1,55.7c2.6,0,3.9,3.6,6.5,3.6v-0.2c-2.5,0-3.6-3.6-6.2-3.6L50.1,55.7L50.1,55.7z M52.3,49.5c2.4,0,3.4-3.4,5.8-3.4v-0.2
		c-2.4,0-3.4,3.4-5.9,3.4L52.3,49.5L52.3,49.5z M51.4,54.3c-0.1,0-0.2-0.2-0.5-0.5c0-0.6-0.5-1.3-1.3-2.2c0-0.3,0.7-0.6,1.6-0.6
		c0.5,0,1.2,0.3,1.8,1c0.5,0.6,0.7,1,0.7,1.2c0,0.2-0.2,0.3-0.4,0.3c-0.1,0-0.2-0.3-0.7-0.7l-0.1,0.1l0.6,0.6c0,0.1-0.1,0.2-0.3,0.2
		c-0.1,0-0.2-0.4-0.6-0.7L52,53l0.5,0.8c0,0.2-0.1,0.2-0.4,0.2l-0.5-0.8l-0.1,0.1l0.4,0.7c0,0.1-0.1,0.1-0.4,0.1l-0.4-0.6l-0.1,0
		c0.3,0.5,0.4,0.6,0.4,0.8C51.5,54.3,51.5,54.3,51.4,54.3L51.4,54.3z M51.2,48.7c-0.3-0.7-0.7-1.2-1.1-1.2l1.4-2.2
		c0.6-0.8,1.2-1.2,1.5-1.2c-0.3,0.3-0.5,1.1-0.5,2.3C52.6,47.3,52.1,48.2,51.2,48.7L51.2,48.7z M50.1,47.3c-0.1-0.7-0.6-1.4-1.2-1.9
		c0.1-1.1,1.6-1.8,3.5-1.8c0.2,0,0.6,0.1,1,0.2c-0.5,0-1.2,0.4-1.7,1.2L50.1,47.3L50.1,47.3z M48.5,51.2c-0.6,0-1.6-0.5-3.3-1.4
		c-0.9-0.5-2.1-0.8-3.6-0.8c-0.4,0-0.7,0-1,0.1c0.3-0.2,0.6-0.4,1-0.4c1.6,0,3.1-2,3.5-4.6c0.1-0.8,0.7-1.5,1.6-2.2l1.6,3.4
		c0.8,0.5,1.2,1.3,1.4,2.1c0.8,0.4,1.3,1.3,1.4,2.5c0.3,0.1,0.8,0.6,1.4,1.4c-0.6-0.4-1.2-0.6-1.7-0.6
		C50.2,50.8,49.4,51.2,48.5,51.2L48.5,51.2z M48.4,50.6l0-0.1c-1.8,0-2.6-2.5-4.4-2.5L44,48C45.8,48,46.6,50.6,48.4,50.6L48.4,50.6z
		 M40.8,48.7c1.8-0.3,3.3-2.1,3.6-4.5c0.3-1.5,1.1-2.6,2.1-2.9l0.2,0.5c-0.9,0.3-1.5,1.3-1.7,2.4C44.5,46.8,42.7,48.7,40.8,48.7
		L40.8,48.7z M39.9,49.4l-0.5-1.1c0.9-0.4,1.5-1.2,1.8-2.2c0.7-0.4,1.2-1.3,1.4-2.3c0.2-1.4,0.8-2.5,1.7-3.3c0.8,0,1.4,0.2,1.9,0.6
		c-1,0.3-1.8,1.5-2.1,3.1c-0.3,2-1.2,3.5-2.4,3.8C40.8,48.4,40.2,48.8,39.9,49.4L39.9,49.4z M41.2,45.8c0-0.2,0-0.6,0.1-1.1
		c0-0.7-0.5-1.3-0.5-2c0.5,0,0.9-0.4,0.9-0.9c0-0.3-0.1-0.6-0.2-0.6c0.6-0.5,1.5-0.7,2.6-0.8c-0.7,0.2-1.3,1.5-1.7,3.4
		C42.2,44.8,41.8,45.6,41.2,45.8L41.2,45.8z M39.3,48c-0.9-1.3-2.2-2.5-3.8-3.3l0,2.4c-0.7-1.9-2.4-3.1-4.3-3.1c0-1,0.3-1.8,0.8-2.2
		c0.2,0.2,0.9,0.3,1.7,0.3c1.2,0,2.1-0.3,2.5-0.9c0.3,0.2,0.6,0.4,0.8,0.4c0.2,0,0.4-0.2,0.7-0.6l0.7,0.4L36.9,43l-0.7-0.5l-0.7,1
		l1.7,1.4L38,44l-0.9-0.8l1.4-1.7c0.2,0.1,0.3,0.4,0.4,0.8c0.1,0.4,0.4,0.7,0.6,0.7c0.1,0,0.2,0,0.2-0.1c0.4,0,0.7-0.1,0.7-0.2
		c0,0.7,0.5,1.3,0.5,2.1C41,46.2,40.4,47.4,39.3,48L39.3,48z M37.2,44.7l-1.4-1.2l0.5-0.7l1.4,1.2L37.2,44.7L37.2,44.7z M39.4,42.8
		c-0.2,0-0.1-0.5-0.3-1c-0.2-0.4-0.5-0.7-0.7-0.7c-0.9-0.3-1.4-0.9-1.4-1.4c0-0.4,0.2-0.7,0.5-0.8c2.4,0.4,4.1,1.7,4.1,3
		c0,0.3-0.1,0.5-0.2,0.5c-0.1,0-0.2-0.1-0.2-0.3c0-0.6-0.3-1.1-0.8-1.2c0.4,0.3,0.6,0.9,0.6,1.4c0,0.1-0.1,0.2-0.2,0.2
		c0,0-0.1,0-0.1-0.1c0-0.6-0.3-1.1-0.7-1.2c0.3,0.2,0.4,0.8,0.5,1.5c0,0.1-0.1,0.2-0.2,0.2c-0.1,0-0.2-0.1-0.2-0.2
		c0-0.7-0.3-1.2-0.8-1.4c0.4,0.5,0.6,1.1,0.6,1.5C39.7,42.7,39.6,42.8,39.4,42.8L39.4,42.8z M36.9,41.3c-0.5,0-1-0.6-1-1.4
		c0-0.7,0.3-1.3,0.8-1.3c0.2,0,0.3,0,0.5,0.1c-0.3,0.1-0.6,0.5-0.6,1c0,0.5,0.2,1,0.5,1c0.1,0,0.2,0.1,0.3,0.3
		C37.4,41.2,37.2,41.3,36.9,41.3L36.9,41.3z M33.6,41.8c-0.8,0-1.3-0.1-1.5-0.3c0-1.8,0.4-3.2,1.1-3.8l1.9,1.1l0,0.1h0.9
		c0,0.2-0.1,0.5-0.1,1c0,0.5,0.1,0.9,0.2,1.2C35.4,41.5,34.6,41.8,33.6,41.8L33.6,41.8z M35.1,38.7c-0.2-0.3-0.8-0.7-1.8-1.2
		l0.4-0.7c1.3,0.7,2.1,1.3,2.3,1.9H35.1L35.1,38.7z M36,38.5c-0.3-0.6-1.1-1.2-2.2-1.8l0.5-0.8c0.7,0.4,1.3,1.2,2,2.2L36,38.5
		L36,38.5z M36.4,37.9c-0.5-1.2-1.2-2-2-2.3l1.7-2.5c0.1,1.1,0.5,1.9,1.1,2.3C36.7,36,36.4,36.9,36.4,37.9L36.4,37.9z M37.4,35.2
		c-0.7-0.6-1.1-1.5-1.1-2.5l1.8-1.3c0,0.7,0.3,1.4,1,1.9L37.4,35.2L37.4,35.2z M39.3,33.2c-0.6-0.3-0.9-1.1-1-1.9l0.8-0.6
		c0.5,0.7,1.2,1.2,1.6,1.2L39.3,33.2L39.3,33.2z M34.5,35.2l-0.7-0.8c0.9-0.8,1.7-1.3,2.4-1.5L34.5,35.2L34.5,35.2z M33.7,36.4
		l-1.1-1.1l1-0.8l0.8,0.9L33.7,36.4L33.7,36.4z M34,33.9c-0.3-0.2-0.4-0.7-0.4-1.2c0-0.7,0.5-1.2,1.2-1.2c0.3,0,0.5-0.3,0.5-0.7
		c0-0.3,0.1-0.5,0.2-0.5c0.2,0,0.3,0.1,0.5,0.1c0.3,0,0.6-0.3,0.6-0.6c0-0.2-0.3-0.4-0.3-0.6c0-0.3,0.2-0.6,0.6-0.7
		c0.3,0.2,0.5,0.2,0.5,0.4c0,0.5,0.2,1,0.5,1.2c-0.1,0-0.1,0.2-0.2,0.4c0,0.3,0.2,0.6,0.4,0.6l-1.9,1.3C35.8,32.7,34.9,33.2,34,33.9
		L34,33.9z M32.5,35.2c-0.4-0.3-0.7-0.6-0.7-0.8c0-0.3,0-0.6-0.1-0.8c0.5-0.4,0.8-0.9,1.1-1.4c0-0.2,0.4-0.3,1-0.5
		c-0.2,0.2-0.4,0.5-0.4,1c0,0.6,0.2,1.1,0.5,1.3L32.5,35.2L32.5,35.2z M32.1,38.9c-1-0.7-1.9-2.1-2.4-3.8c1,0,1.5-0.1,1.9-0.5
		l1.9,1.9L32.1,38.9L32.1,38.9z M30.2,34.9c-0.7,0-1.2-0.3-1.2-0.7c0-0.3,0.1-0.5,0.2-0.5c0.4,0.3,0.7,0.4,1,0.5
		c0.6,0,1.1-0.2,1.2-0.5c0.1,0.1,0.2,0.3,0.2,0.5C31.6,34.5,31,34.8,30.2,34.9L30.2,34.9z M30.2,33.9c-0.5,0-1-0.4-1-0.9
		c0-2.1,1.6-3.7,3.6-3.7c0.3,0,0.5,0.1,0.5,0.2c0,0.1-0.1,0.2-0.2,0.2c-0.7,0-1.3,0.3-2,0.8c0.5,0,0.9-0.6,1.5-0.6
		c0.3,0,0.6,0.1,0.6,0.2c0,0.1-0.1,0.2-0.3,0.2c-0.3,0-0.7,0.2-1.2,0.7c0.8-0.3,1.2-0.5,1.5-0.5c0.2,0,0.3,0,0.3,0.1
		c0,0.1-0.1,0.2-0.2,0.2c-0.2,0-0.6,0.2-1.2,0.6c0.5,0,0.9-0.4,1.4-0.4c0.1,0,0.2,0,0.2,0c0,0.6-1.2,0.3-1.2,0.9
		C32.2,33.2,31.2,33.9,30.2,33.9L30.2,33.9z M36.6,38.3c0-1.4,0.4-2.5,1.2-3.2l3.1-3.2c0.6-0.1,1.1-0.4,1.3-0.8
		c-0.1,0.9-1,2.1-2.5,3.3c-1.4,1.2-2.3,2.6-2.4,4.2L36.6,38.3L36.6,38.3z M38.6,39l-1.1-0.3c0-1.4,0.8-2.9,2.3-4.1
		c1.4-1.2,2.4-2.4,2.6-3.6c1.1,0.4,1.9,0.9,2.1,1.3l-3,3.7C40.2,37.6,39.2,38.7,38.6,39L38.6,39z M39.8,39.5l-1-0.4
		c1-0.7,1.9-1.6,2.8-2.8L52.9,22c0.1,0,0.2,0.2,0.3,0.6c0,0.3-0.1,0.7-0.4,1L39.8,39.5L39.8,39.5z M41.2,40.6
		c-0.2-0.4-0.6-0.7-0.9-0.8l6.4-8.3c0,0.5,0.1,0.9,0.3,0.9c0,0.3,0.1,0.6,0.2,0.6L41.2,40.6L41.2,40.6z M49.7,30.1
		c-0.2-0.1-0.5-0.1-1.7-0.1l5-6.2c0.3-0.4,0.4-0.8,0.4-1.5c0.3,0.2,0.5,0.9,0.6,1.9c0,0.5-0.1,1-0.4,1.3L49.7,30.1L49.7,30.1z
		 M48.9,34.7c-0.5,0-1-0.2-1-0.6c0-0.3,0.5-0.2,0.5-0.5v-1c-0.1,0.1-0.4,0.1-1,0.1c-0.1,0-0.2,0-0.2-0.1c0-0.2,0.5-0.2,1.2-0.5v-0.1
		c-0.2,0.1-0.7,0.2-1.4,0.2c0,0-0.1-0.1-0.1-0.2c0-0.3,0.8-0.1,1.6-0.5l0.1-0.2c-0.2,0.1-0.6,0.2-1.2,0.2c-0.2,0-0.3-0.1-0.4-0.3
		c0-0.3,0.8-0.1,1.8-0.4v-0.1c-0.7-0.3-1.3-0.1-1.4-0.3c0-0.3,0.7-0.4,1.6-0.4c0.7,0,1.2,1,1.2,2.2C50.4,33.6,49.7,34.7,48.9,34.7
		L48.9,34.7z M48.9,35.6c-1.1,0-1.9-0.6-1.9-1.4c0-0.4,0.4-0.7,1-0.7c0.1,0,0.2,0.1,0.2,0.2c0,0.1-0.1,0.2-0.2,0.2
		c-0.3,0-0.5,0.1-0.5,0.2c0,0.5,0.6,1,1.4,1c0.5,0,0.9-0.2,0.9-0.5C49.8,35.1,49.4,35.6,48.9,35.6L48.9,35.6z M45.7,37.5
		c-0.1-0.3-0.2-0.9-0.3-1.7l1.1-1.4l0.3-0.1c0.1,0.9,0.8,1.6,1.6,1.6L45.7,37.5L45.7,37.5z M44.6,40.2l0.1-0.8c0-0.7-0.5-1.3-0.5-2
		l0.9-1.2c0,1.1,0.7,2.1,0.7,3.3c0,0.3-0.1,0.6-0.2,1L44.6,40.2L44.6,40.2z M41.3,40.9l2.6-3.3c0,0.6,0.5,1.2,0.5,1.8
		c0,0.4,0,0.7-0.1,0.8C43,40.1,42,40.4,41.3,40.9L41.3,40.9z M48.2,41.3c-1,0-1.9-0.3-2.4-1c0.1-0.3,0.2-0.6,0.2-1
		c0-0.8-0.1-1.4-0.2-1.7c1.5,0.5,2.3,0.9,2.6,1.2c-0.3,0.2-0.4,0.8-0.5,1.4C48,40.9,48,41.2,48.2,41.3L48.2,41.3z M49.4,41.7
		c-0.5,0-1-0.6-1-1.3c0-0.8,0.3-1.4,0.7-1.4c0.3,0,0.6,0.1,0.7,0.4c-0.4,0-0.7,0.4-0.7,1c0,0.5,0.3,1,0.7,1
		C49.7,41.6,49.5,41.7,49.4,41.7L49.4,41.7z M52.8,41.6l-2.4-0.2c-0.4,0-0.7-0.5-0.7-1.2c0-0.3,0.3-0.6,0.7-0.7l1.4-0.7
		c0.5,0,1,0,1.3,0c0.5,0,0.8,0,0.8,0.3c0,0.3-0.3,0.5-0.7,0.5l-0.5-0.2l-1.4,1.4l1,0.2c0.2,0,0.3-0.1,0.4-0.2c0-0.1-0.3,0-0.3-0.2
		c0-0.1,0.2-0.2,0.4-0.2c0.1,0,0.3,0.3,0.5,0.7l0.1-0.1c-0.2-0.3-0.4-0.6-0.4-0.8c0-0.1,0.1-0.2,0.2-0.2c0.1,0,0.3,0.3,0.5,0.8h0.1
		l-0.1-0.9c0-0.1,0.1-0.1,0.2-0.1c0.1,0,0.2,0.3,0.3,0.7c0.1,0,0.1-0.1,0.1-0.2c0-0.2-0.1-0.3-0.1-0.5c0.3,0,0.5,0.2,0.5,0.5
		C54.7,40.8,53.8,41.5,52.8,41.6L52.8,41.6z M44.6,32.2c-0.3-0.6-1.2-1.1-2.2-1.4c0.2-0.2,0.4-0.5,0.4-1c0.4,0,0.7-0.2,1.1-0.2
		c0.6,0,0,1.3,0.6,1.3l0.5,0.7L44.6,32.2L44.6,32.2z M44.7,30.9c-0.7,0,0-1.4-0.8-1.4c-0.3,0-0.6,0.2-1,0.2l0.2-0.8
		c0.1-1.2,0.2-1.6,0.2-1.9c0-0.1-0.1-0.3-0.2-0.6c0.1-0.2,0.2-0.5,0.2-0.7c0-0.5,0.2-1.1,0.2-1.6c0-0.3-0.1-0.6-0.4-0.9
		c1.6,0.8,2.6,2.6,2.6,4.7C45.7,29.2,45.4,30.2,44.7,30.9L44.7,30.9z M36,30.3c-0.5,0-1-1.1-1-2.4c0-2.1,1.6-4.1,3.9-4.9
		c-0.9,0.9-1.4,2.1-1.4,3.4c0,1,0.1,1.6,0.4,1.9c-0.2,0.1-0.4,0.2-0.4,0.4c-0.2,0-0.3-0.3-0.5-0.3c-0.5,0.1-0.8,0.5-0.8,0.9
		c0,0.2,0.3,0.4,0.3,0.6C36.4,30.1,36.2,30.3,36,30.3L36,30.3z M37.6,26.7c0-0.9,0.2-1.8,0.6-2.5c0,0.4,0,0.9,0.3,1.3
		C38.2,25.7,37.8,26.2,37.6,26.7L37.6,26.7z M41,31.7c-0.8,0-1.7-0.8-2.2-1.9c0,0.7-0.2,1.2-0.5,1.2c-0.2,0-0.4-0.2-0.4-0.5
		c0-0.1,0.1-0.2,0.2-0.4c-0.3-0.2-0.5-0.7-0.5-1.2c0-0.3,0.1-0.5,0.2-0.5c0.4,0,0.3,0.7,0.7,0.7c-0.1-0.2-0.2-0.4-0.2-0.7
		c0-1.4,1.1-2.5,2.4-2.5c0,0.2,0.2,0.4,0.5,0.4c0.2,0,0.3-0.1,0.4-0.3c0.9,0.3,1.4,0.7,1.4,1C43.2,29.6,42.2,31.7,41,31.7L41,31.7z
		 M38.4,30.8c0.1,0,0.2-0.1,0.2-0.3c0-0.1-0.1-0.2-0.2-0.3c-0.1,0-0.2,0.1-0.2,0.3C38.1,30.7,38.2,30.8,38.4,30.8L38.4,30.8z
		 M38.2,28.3c-0.3-0.2-0.4-0.6-0.4-0.9c0-0.8,0.4-1.6,1.1-1.9c0-0.4,0.2-0.8,0.5-1.2l0.5,0.6l0.4-1.1l0.5,0.9l0.5-1.1l0.6,1.1
		l0.6-0.9c0.5,0.4,0.7,1.1,0.7,1.8c0,0.2,0,0.5-0.2,0.7c-0.1-0.2-0.5-0.4-1.2-0.6c0-0.4-0.2-0.7-0.5-0.7c-0.3,0-0.6,0.3-0.6,0.6
		C39.3,25.7,38.2,26.9,38.2,28.3L38.2,28.3z M41.3,26c-0.2,0-0.3-0.2-0.3-0.4c0-0.2,0.1-0.3,0.3-0.4c0.2,0,0.3,0.2,0.3,0.4
		C41.6,25.8,41.5,26,41.3,26L41.3,26z M49.7,25c-0.2,0-0.4-0.3-0.4-0.7c0-0.8,1.9-2.5,2.9-2.5c0.2,0,0.4,0.1,0.4,0.3l-1.9,2.2
		C50.3,24.7,49.9,25,49.7,25L49.7,25z M53.8,26.3c0.1,0,0.2-0.1,0.3-0.3c0-0.2-0.1-0.3-0.3-0.3c-0.1,0-0.2,0.1-0.3,0.3
		C53.5,26.2,53.6,26.3,53.8,26.3L53.8,26.3z M52.8,27.5c0.1,0,0.2-0.1,0.3-0.3c0-0.2-0.1-0.3-0.3-0.3c-0.1,0-0.2,0.1-0.3,0.3
		C52.5,27.4,52.6,27.5,52.8,27.5L52.8,27.5z M51.7,28.8c0.1,0,0.2-0.1,0.3-0.3c0-0.2-0.1-0.3-0.3-0.3c-0.1,0-0.2,0.1-0.3,0.3
		C51.4,28.6,51.6,28.7,51.7,28.8L51.7,28.8z M40.8,30.8c0.1,0,0-0.2,0.2-0.2c0.1,0,0.1,0.2,0.2,0.2c0.1,0,0.2-0.3,0.6-0.5
		c-0.3-0.1-0.4-0.2-0.5-0.2c-0.1,0-0.1,0.1-0.3,0.1c-0.1,0-0.1-0.1-0.3-0.1c-0.1,0-0.2,0.1-0.6,0.2C40.5,30.4,40.6,30.8,40.8,30.8
		L40.8,30.8z M40.5,30.3c0.3,0,0.7,0,1,0c-0.1,0.1-0.2,0.2-0.4,0.2C40.9,30.5,40.7,30.4,40.5,30.3L40.5,30.3z M41.2,29.7
		c0.2,0,0.3-0.1,0.3-0.3c-0.1-0.5-0.2-0.9-0.2-1.2c0-0.4,0.3-0.7,0.7-0.7c0.3,0,0.6,0.1,0.9,0.2c-0.2-0.3-0.6-0.4-1-0.4
		c-0.5,0-0.8,0.4-0.8,0.9c0.1,0.5,0.2,0.9,0.2,1c0,0.1,0,0.3-0.1,0.3c-0.1,0-0.3-0.1-0.4-0.1c-0.1,0-0.2,0.1-0.3,0.3
		c0,0,0.1,0,0.2-0.1C40.9,29.6,41,29.7,41.2,29.7L41.2,29.7z M41.6,28.2C41.7,28,42,28,42.2,28c0.2,0,0.4,0,0.5,0.2
		c-0.1,0.1-0.3,0.2-0.5,0.2C42,28.3,41.8,28.3,41.6,28.2L41.6,28.2z M41.5,28.2c0.2,0.2,0.5,0.3,0.7,0.3c0.1,0,0.4-0.1,0.7-0.3
		c-0.4-0.2-0.6-0.4-0.7-0.4C42,27.8,41.7,27.9,41.5,28.2L41.5,28.2z M42.2,28.3c0.1,0,0.2-0.1,0.2-0.2l-0.2,0L42,28
		C42,28.2,42,28.3,42.2,28.3L42.2,28.3z M40,28.3c0.1,0,0.2-0.1,0.2-0.2L40,28l-0.2,0C39.7,28.2,39.8,28.3,40,28.3L40,28.3z
		 M40.7,27.8c0,0,0-0.1,0-0.2c-0.2-0.1-0.5-0.2-0.7-0.2c-0.3,0-0.6,0.1-0.9,0.3c0.2-0.1,0.4-0.1,0.7-0.1
		C40.1,27.5,40.4,27.6,40.7,27.8L40.7,27.8z M40.6,28.1c-0.1,0.1-0.3,0.2-0.5,0.2c-0.3,0-0.6-0.1-0.7-0.2C39.5,28,39.7,28,40,28
		C40.2,28,40.4,28,40.6,28.1L40.6,28.1z M40.7,28.1c-0.3-0.2-0.5-0.4-0.7-0.4c-0.2,0-0.5,0.1-0.9,0.4c0.3,0.2,0.7,0.3,0.9,0.3
		C40.2,28.5,40.4,28.4,40.7,28.1L40.7,28.1z M38.7,25.4c-0.2-0.3-0.4-0.6-0.4-0.9c0-1,0.8-1.8,1.7-1.8c-0.3-0.1-0.5-0.3-0.5-0.6
		c0-0.3,0.3-0.6,0.8-0.6c0,0,0-0.2,0-0.3c0-0.3,0.2-0.7,0.5-0.8c0.3,0.2,0.5,0.5,0.6,0.8c0,0.2,0,0.3-0.1,0.4c0.5,0,0.9,0.2,0.9,0.6
		c0,0.2-0.1,0.5-0.4,0.6c0.9,0,1.5,0.6,1.5,1.3l-0.1,0.8c-0.2-0.5-0.4-1-0.7-1.2l-0.6,0.9l-0.6-1.1l-0.5,1.1l-0.6-1l-0.4,1.2
		l-0.4-0.6C39,24.4,38.7,24.9,38.7,25.4L38.7,25.4z M41.2,27c0.1,0,0.2-0.1,0.2-0.2c0-0.1-0.1-0.2-0.2-0.2c-0.1,0-0.2,0.1-0.2,0.2
		C41,26.9,41.1,27,41.2,27L41.2,27z"/>
	<path class="st27" d="M20.2,68.4l-2.8,2.4l-0.1-0.6l1.4-1.2c-0.2-0.1-0.4-0.2-0.6-0.4c-0.1-0.2-0.2-0.3-0.3-0.5
		c0-0.2-0.1-0.4,0-0.6c-0.1,0-0.1,0.1-0.2,0.1l-0.2,0l-0.3,0l-0.3-0.1L16.6,68l-0.1,0.5L16.5,69c0,0.1,0,0.3,0,0.5l-0.3-0.2l0.1-0.5
		l0.2-1c0.1-0.6,0.3-1.1,0.5-1.4l0.1,0l0.1,0l0.1,0l0.1,0l0.5,0.5l0.8-0.7l-0.8-1l0.3-0.2l3.1,3.5l-0.3,0.2L20.2,68.4L20.2,68.4z
		 M19.8,68l-1.1-1.3l-0.9,0.8l0,0.2l0.1,0.2L18,68l0.1,0.2c0.2,0.3,0.5,0.4,0.9,0.5L19.8,68L19.8,68z M21.7,69.9l-2.5,2.6L19,72
		l2.3-2.4l-0.4-0.4l0.3-0.3l1.3,1.3l-0.3,0.3L21.7,69.9L21.7,69.9z M28.9,76.2l-1.7,3.3l-0.3-0.5l0.5-1c0,0-0.1,0-0.1,0L27,78
		l-0.4-0.1l-0.3-0.1c-0.3-0.2-0.6-0.4-0.7-0.7c-0.1-0.2-0.1-0.3-0.1-0.5c0-0.1,0.1-0.3,0.1-0.4c0.2-0.3,0.5-0.4,0.9-0.3
		c0.2,0,0.4,0.1,0.7,0.2c0.1,0,0.2,0.1,0.3,0.1l0.1,0.5l-0.2-0.1c-0.1,0-0.2-0.1-0.4-0.2c-0.4-0.1-0.7-0.2-0.9-0.1
		c-0.1,0-0.2,0.1-0.3,0.2c-0.1,0.2-0.1,0.3,0,0.5c0,0.1,0.1,0.1,0.2,0.2c0.1,0.1,0.2,0.1,0.3,0.2c0.2,0.1,0.5,0.2,0.8,0.1l0.3,0
		c0.1,0,0.1,0,0.1-0.1l0.8-1.5l-2.3-1.2l0.2-0.3l3.4,1.8l-0.2,0.3L28.9,76.2L28.9,76.2z M33.5,77.8l-1.3,3.4l-0.4-0.4l0.3-0.8
		L31.9,80l-0.2,0c-0.4,0.1-0.7,0-1-0.1c-0.2-0.1-0.3-0.1-0.5-0.2c-0.3-0.2-0.5-0.5-0.6-0.8c0-0.2,0-0.3,0-0.5c0-0.1,0.1-0.2,0.2-0.2
		l0.1-0.1l0.2,0L30,78.1l-0.1-0.2l0-0.2l0-0.2l0.1-0.1c0,0,0.1-0.1,0.1-0.1l0.1,0l0.1,0l1,0.4l0.2-0.5l-1.6-0.6l0.1-0.3l4.2,1.5
		l-0.1,0.3L33.5,77.8L33.5,77.8z M33,77.7L32,77.3l-0.3,0.8l-1.1-0.4l-0.1,0l-0.1,0l-0.1,0l0,0.1c0,0.1,0,0.2,0,0.3l0.1,0.1l0.2,0.1
		l0.7,0.2l0.1,0.5L31.3,79l-0.6-0.2l-0.3-0.1c-0.2-0.1-0.3,0-0.4,0c-0.1,0-0.1,0.1-0.1,0.2c-0.1,0.1,0,0.3,0.2,0.5
		c0,0,0.1,0.1,0.2,0.1l0.3,0.1c0.2,0.1,0.3,0.1,0.6,0.1c0.3,0,0.5,0,0.7,0l0.3,0l0.4-0.1L33,77.7L33,77.7z M35.4,78.2l-0.8,3.6
		l-0.4-0.4l0.8-3.3l-0.6-0.1l0.1-0.4l1.8,0.4l-0.1,0.4L35.4,78.2L35.4,78.2z M42.1,79l-0.1,3.7l-0.5-0.3l0-1.3l-0.2,0.2l-0.2,0.1
		L41,81.4l-0.2,0l-0.1,0l-0.1,0c-0.4,0-0.7-0.1-1.1-0.4c-0.3-0.2-0.5-0.6-0.5-1l0.2,0c0,0,0.1,0,0.1,0c0.3,0,0.4-0.1,0.5-0.3
		c0.1-0.1,0.1-0.2,0.1-0.3l0-0.2l0-0.1c0,0,0-0.1,0-0.1L39.9,79l-1.1,0l0-0.4l4,0.1l0,0.4L42.1,79L42.1,79z M41.6,79l-1.5,0
		c0,0,0.1,0.1,0.1,0.1l0.1,0.2l0.1,0.2c0,0,0,0.1,0,0.2c0,0.3-0.2,0.6-0.5,0.7l-0.3,0.1l-0.3,0l0.1,0.2c0,0,0,0.1,0.1,0.1
		c0.2,0.2,0.5,0.3,0.9,0.3c0.1,0,0.2,0,0.2,0l0.2,0l0.2-0.1l0.2-0.1l0.2-0.1l0.1-0.1L41.6,79L41.6,79z M44.2,78.9l0.3,3.7l-0.5-0.3
		l-0.2-3.4l-0.6,0l0-0.4l1.9-0.1l0,0.4L44.2,78.9L44.2,78.9z M51.7,77.2c-0.1-0.1-0.4-0.2-1-0.4c-0.7-0.2-1.3-0.3-1.8-0.2
		c-0.3,0.1-0.5,0.2-0.6,0.3c-0.1,0.2-0.2,0.3-0.1,0.5c0,0,0,0.1,0.1,0.1l0.1,0.1l0.2,0.1c0,0,0.1,0.1,0.1,0.1l0.8-0.2l0.1,0.4
		l-0.7,0.2l0.8,3.6L49,81.6l-0.8-3.3l-0.5,0.1l-0.1-0.4l0.6-0.1l-0.2-0.1L48,77.6l-0.2-0.2c0,0-0.1-0.1-0.1-0.2
		c-0.1-0.3,0-0.5,0.2-0.7c0.2-0.2,0.4-0.3,0.7-0.4c0.2-0.1,0.5-0.1,0.9,0c0.2,0,0.4,0,0.5,0.1l0.6,0.2c0.2,0.1,0.4,0.1,0.7,0.2
		l0.1,0.1l0.1,0.1l0.3,0.1L51.7,77.2L51.7,77.2z M53.6,76.7l1.3,3.4L54.3,80l-0.4-1c0,0,0,0.1-0.1,0.1l-0.2,0.2l-0.3,0.2l-0.3,0.1
		c-0.4,0.1-0.7,0.1-1,0c-0.2-0.1-0.3-0.2-0.4-0.3c-0.1-0.1-0.2-0.2-0.2-0.4c-0.1-0.3,0-0.6,0.4-0.9c0.2-0.1,0.4-0.2,0.7-0.4
		c0.1,0,0.2-0.1,0.3-0.1l0.4,0.2L53,77.9c-0.1,0-0.2,0.1-0.4,0.2c-0.3,0.2-0.6,0.4-0.6,0.6c-0.1,0.1-0.1,0.2,0,0.4
		c0.1,0.2,0.2,0.3,0.3,0.4c0.1,0,0.1,0,0.3,0c0.1,0,0.2,0,0.4-0.1c0.3-0.1,0.5-0.3,0.7-0.5l0.2-0.3c0-0.1,0.1-0.1,0-0.1l-0.6-1.6
		l-2.4,0.9l-0.1-0.3l3.6-1.3l0.1,0.3L53.6,76.7L53.6,76.7z M57.6,74.8l1.7,3.3l-0.6,0L58,76.6l-1.4,0.7l0.2,0.3c0,0.1,0,0.1,0,0.2
		c-0.2,0.1-0.4,0.1-0.7,0c-0.1,0-0.2-0.1-0.3-0.1c-0.1,0-0.1-0.1-0.2-0.1c0-0.1,0-0.1,0.1-0.2l0.3-0.2L55.3,76l-0.8,0.4l-0.2-0.3
		l3.7-1.9l0.2,0.3L57.6,74.8L57.6,74.8z M57.2,75.1l-1.4,0.7l0.6,1.3l1.4-0.7L57.2,75.1L57.2,75.1z M61,72.3l0.7,1l0-0.1l0.1-0.2
		l0.2-0.2l0.2-0.2l0.1,0l0.1-0.1l0,0l0,0l0.2,0.3l-0.1,0c-0.1,0.1-0.1,0.1-0.2,0.2c-0.1,0.1-0.1,0.2-0.2,0.3l-0.1,0.2L62,73.8
		l1.1,1.6l-0.6,0l-0.7-1.1l-0.1,0.2l-0.1,0.1l-0.2,0.3l-0.2,0.2c-0.1,0.1-0.2,0.1-0.4,0.2c-0.3,0.1-0.6,0.1-0.8-0.1
		c-0.1-0.1-0.2-0.1-0.3-0.3c-0.2-0.3-0.2-0.6,0.2-1c0.1-0.1,0.2-0.2,0.3-0.3l0.1-0.1l0.1-0.1l0.4,0.2l-0.1,0.1c0,0-0.1,0-0.1,0l0,0
		l0,0l-0.1,0.1c-0.1,0.1-0.2,0.2-0.3,0.2c-0.3,0.3-0.4,0.5-0.2,0.8c0.1,0.2,0.3,0.2,0.4,0.2l0.2-0.1l0.2-0.1
		c0.1-0.1,0.3-0.3,0.5-0.6l0.1-0.2l0.1-0.2l-0.9-1.3l-1.9,1.3l-0.2-0.3l3.3-2.3l0.2,0.3L61,72.3L61,72.3z M64.5,69.7l2.4,2.8
		l-0.5,0.1l-1.5-1.7l-1.2,1.1c-0.1,0.1-0.1,0.1-0.1,0.2c-0.1,0.1-0.1,0.2,0,0.4l0.1,0.2c0.1,0.1,0.3,0.2,0.5,0.3
		c0.2,0.1,0.5,0.2,0.7,0.2l0.3,0l0.5,0l-0.2,0.3c-0.1,0-0.2,0-0.3,0l-0.7-0.1c-0.6-0.1-1.1-0.3-1.3-0.5c-0.1-0.2-0.2-0.3-0.2-0.5
		l0-0.2l0-0.1l0.1-0.1l0.1-0.1l1.4-1.2L64.1,70L62,71.9l-0.2-0.3l3.1-2.7l0.2,0.3L64.5,69.7L64.5,69.7z M67.6,66.3l2.8,2.4l-0.5,0.2
		l-1-0.9l0,0.3l-0.1,0.3l-0.1,0.2l-0.1,0.2l-0.1,0.1L68.5,69c-0.3,0.3-0.6,0.5-1,0.6c-0.4,0.1-0.7,0-1-0.3l0.2-0.2
		c0,0,0-0.1,0.1-0.1c0.1-0.2,0.2-0.4,0.1-0.6c0-0.1-0.1-0.2-0.2-0.3l-0.1-0.1L66.4,68c0,0-0.1,0-0.1,0l-0.2,0l-0.7,0.8l-0.3-0.2
		l2.6-3l0.3,0.2L67.6,66.3L67.6,66.3z M67.3,66.7l-1,1.1c0.1,0,0.1,0,0.1,0l0.2,0l0.2,0.1c0,0,0.1,0.1,0.2,0.1
		c0.3,0.2,0.3,0.5,0.2,0.8l-0.1,0.3L67,69.3l0.3,0c0.1,0,0.1,0,0.1,0c0.3,0,0.5-0.2,0.8-0.5c0.1-0.1,0.1-0.1,0.1-0.2l0.1-0.2
		l0.1-0.2l0-0.2l0-0.3l0-0.2L67.3,66.7L67.3,66.7z M68,64.8l-0.2,0l-1.3,0.3c-0.1,0-0.2,0.1-0.3,0.2l-0.5,0.7l-0.6,0l0.6-0.9
		c0.1-0.1,0.1-0.1,0.1-0.2c0-0.1,0.1-0.1,0.1-0.1l0,0l0,0l0.5-0.1l1.7-0.2L68,64.8L68,64.8z"/>
	<path class="st27" d="M28.7,76.1c0-0.1-0.1-0.5-0.4-1.1c-0.3-0.7-0.7-1.3-1.2-1.6c-0.2-0.2-0.5-0.2-0.7-0.2c-0.2,0-0.4,0.1-0.5,0.3
		c0,0,0,0.1,0,0.1l0,0.2l0,0.2c0,0,0,0.1,0,0.1l0.7,0.5l-0.2,0.3l-0.6-0.4l-2.3,3.2l-0.3-0.6l2.1-3l-0.4-0.3l0.2-0.3l0.6,0.4
		l-0.1-0.3l0-0.2l0-0.2c0-0.1,0-0.1,0.1-0.2c0.2-0.3,0.4-0.4,0.7-0.4c0.2,0,0.5,0.1,0.8,0.3c0.2,0.1,0.4,0.4,0.6,0.7
		c0.1,0.2,0.2,0.3,0.3,0.5l0.3,0.6c0.1,0.2,0.2,0.5,0.3,0.7l0.1,0.2l0.1,0.2l0.1,0.3L28.7,76.1L28.7,76.1z"/>
	<path class="st27" d="M60.4,79.2c-0.1,0.3-0.4,0.6-0.8,0.9c-0.2,0.1-0.4,0.2-0.7,0.3c-0.4,0.1-0.7,0.1-1,0l-0.7-0.1
		c-0.2,0-0.3-0.1-0.3-0.1l0.1-0.4c0.1,0.1,0.2,0.1,0.4,0.2c0.2,0.1,0.4,0.1,0.7,0.1c0.4,0,0.8-0.1,1.2-0.3c0.2-0.1,0.3-0.2,0.4-0.3
		c0.2-0.3,0.4-0.6,0.4-0.8c0-0.1,0-0.2-0.1-0.3c-0.1-0.2-0.2-0.2-0.3-0.3l-0.2,0l-0.2,0.1c-0.1,0-0.1,0.1-0.2,0.2
		c-0.1,0.1-0.1,0.2-0.1,0.3l0,0.2l0,0.1l-0.5,0l0-0.2l0-0.2c0.1-0.3,0.2-0.5,0.5-0.7c0.3-0.2,0.6-0.3,0.9-0.2c0.3,0,0.5,0.2,0.7,0.4
		C60.5,78.5,60.5,78.8,60.4,79.2L60.4,79.2z"/>
</g>
</svg>
